# xmcd
#
# Track frame offsets:
#	183
#	15838
#	34060
#	53725
#	76048
#	90058
#	106760
#	121720
#	136235
#	161650
#	178790
#	214278
#	228173
#	245603
#	257093
#
# Disc length: 3725 seconds
#
# Revision: 1
# Processed by: cddbd v1.4PL0 Copyright (c) Steve Scherf et al.
# Submitted via: audiograbber 1.81.03
#
DISCID=aa0e8b0f
DTITLE=Various Artist - Cookin' With The Blues 2 (BEECD 12)
DYEAR=1994
DGENRE=Blues
TTITLE0=Sunnyland Slim - I Had It So Hard
TTITLE1=Billy Boy Arnold and Sammy Lawhorn - Ooh Wee
TTITLE2=Fenton Robinson - You Don't Know What Love Is
TTITLE3=Charlie Musselwhithe - Christo Redemptor
TTITLE4=The Clovers - He Sure Could Hypnotize
TTITLE5=Albert Collins - The Things I Used To Do
TTITLE6=Louisiana Red - Alabama Train
TTITLE7=Matt "Guitar" Murphy - Groovin' On Bounce
TTITLE8=Eddie Clearwater - Mayor Daley's Blues
TTITLE9=Muddy Waters - I Got My Mojo Working
TTITLE10=Luther Allison - Cat Blues
TTITLE11=Lightinin' Hopkins - War Is Starting Again
TTITLE12=Paul Lamb and The Blues Burglers - Tired Of Tryin'
TTITLE13=Screamin' Jay Hawkins - The Whammy
TTITLE14=Magic Slim - Ship Made Of Paper
EXTD=
EXTT0=
EXTT1=
EXTT2=
EXTT3=
EXTT4=
EXTT5=
EXTT6=
EXTT7=
EXTT8=
EXTT9=
EXTT10=
EXTT11=
EXTT12=
EXTT13=
EXTT14=
PLAYORDER=
